<?xml version="1.0" encoding="utf-8"?>
<!-- Generator: Adobe Illustrator 16.0.0, SVG Export Plug-In . SVG Version: 6.00 Build 0)  -->
<!DOCTYPE svg PUBLIC "-//W3C//DTD SVG 1.1//EN" "http://www.w3.org/Graphics/SVG/1.1/DTD/svg11.dtd">
<svg version="1.1" id="Calque_2" xmlns="http://www.w3.org/2000/svg" xmlns:xlink="http://www.w3.org/1999/xlink" x="0px" y="0px"
	 width="150px" height="31px" viewBox="0 0 150 31" enable-background="new 0 0 150 31" xml:space="preserve">
<g>
	<g>
		<path fill-rule="evenodd" clip-rule="evenodd" fill="#F8AF21" d="M91.301,15.996v2.054h2.723c1.476,0,2.696-1.223,2.696-2.712
			c0-1.465-1.221-2.71-2.688-2.71h-0.004c-1.496,0-2.727,1.245-2.727,2.71V15.996L91.301,15.996z M94.027,4.132h0.004
			c6.155,0,11.186,5.054,11.186,11.206l0,0c0,6.186-5.03,11.219-11.193,11.219h-2.723V21.46h2.723c3.332,0,6.114-2.765,6.114-6.122
			c0-3.345-2.782-6.104-6.106-6.104h-0.004c-3.36,0-6.123,2.759-6.123,6.104v0.658v5.464v5.097h-5.091V15.338
			C82.813,9.186,87.843,4.132,94.027,4.132z"/>
	</g>
	<g>
		<path fill="#F7FAFB" d="M99.804,31c-0.203,0-0.446-0.098-0.545-0.342L98.281,28.9l-0.829,0.439c-0.194,0.098-0.423,0.098-0.599,0
			c-0.186-0.097-0.329-0.246-0.362-0.488l-0.748-6.036c-0.048-0.264,0.097-0.508,0.31-0.653c0.228-0.098,0.521-0.098,0.716,0.097
			l4.725,3.858c0.158,0.146,0.256,0.342,0.208,0.537c0,0.244-0.143,0.427-0.306,0.537l-0.818,0.439l0.977,1.763
			c0.148,0.337,0.05,0.728-0.245,0.874l-1.171,0.663C100.039,30.999,99.932,31,99.804,31z M98.526,27.387c0.05,0,0.102,0,0.183,0
			c0.159,0.049,0.306,0.179,0.368,0.339l1.002,1.761l0.014-0.002l-0.979-1.805c-0.146-0.293-0.049-0.684,0.256-0.879l0.573-0.293
			l-2.733-2.247l0.439,3.517l0.568-0.338C98.309,27.387,98.429,27.387,98.526,27.387z"/>
		<g>
			<polygon fill="#008AFF" points="101.066,26.605 96.378,22.747 97.145,28.801 98.526,28.021 99.803,30.365 100.969,29.73 
				99.698,27.387 			"/>
		</g>
	</g>
	<g>
		<path fill="#008AFF" d="M22.541,25.851c-1.439,0.696-3.318,1.045-5.638,1.045c-3.025,0-5.404-0.889-7.136-2.668
			c-1.732-1.778-2.599-4.147-2.599-7.108c0-3.153,0.974-5.711,2.922-7.673c1.948-1.961,4.476-2.942,7.583-2.942
			c1.925,0,3.548,0.243,4.868,0.729v4.276c-1.32-0.788-2.823-1.182-4.51-1.182c-1.852,0-3.346,0.582-4.483,1.746
			s-1.705,2.741-1.705,4.73c0,1.907,0.537,3.427,1.609,4.559c1.073,1.132,2.517,1.698,4.332,1.698c1.732,0,3.318-0.422,4.757-1.266
			V25.851z"/>
		<path fill="#008AFF" d="M29.897,26.552h-4.345V5.707h4.345V26.552z"/>
		<path fill="#008AFF" d="M40.265,26.896c-2.347,0-4.192-0.657-5.535-1.974c-1.343-1.314-2.014-3.101-2.014-5.355
			c0-2.328,0.696-4.15,2.09-5.465c1.393-1.315,3.277-1.973,5.651-1.973c2.337,0,4.171,0.658,5.5,1.973s1.994,3.055,1.994,5.218
			c0,2.337-0.685,4.185-2.056,5.541C44.525,26.217,42.648,26.896,40.265,26.896z M40.375,15.456c-1.027,0-1.824,0.353-2.393,1.058
			c-0.568,0.707-0.853,1.706-0.853,2.998c0,2.704,1.091,4.057,3.272,4.057c2.081,0,3.122-1.39,3.122-4.167
			C43.524,16.771,42.474,15.456,40.375,15.456z"/>
		<path fill="#008AFF" d="M64.149,26.552h-4.331v-2.146h-0.069c-1.072,1.66-2.507,2.489-4.304,2.489
			c-3.264,0-4.895-1.976-4.895-5.927v-8.497h4.331v8.112c0,1.989,0.789,2.984,2.365,2.984c0.779,0,1.402-0.273,1.87-0.818
			c0.467-0.546,0.701-1.286,0.701-2.221v-8.058h4.331V26.552z"/>
		<path fill="#008AFF" d="M81.584,26.552h-4.345v-1.938h-0.055c-0.99,1.521-2.443,2.282-4.359,2.282
			c-1.76,0-3.176-0.621-4.249-1.863c-1.072-1.242-1.608-2.977-1.608-5.204c0-2.328,0.591-4.194,1.773-5.597
			c1.183-1.402,2.732-2.104,4.647-2.104c1.815,0,3.08,0.651,3.795,1.952h0.055V5.707h4.345V26.552z M77.322,19.704v-1.059
			c0-0.917-0.266-1.678-0.798-2.282c-0.532-0.605-1.224-0.908-2.076-0.908c-0.962,0-1.714,0.378-2.255,1.134
			c-0.541,0.756-0.812,1.794-0.812,3.114c0,1.237,0.261,2.191,0.784,2.86s1.247,1.004,2.173,1.004c0.88,0,1.597-0.354,2.152-1.06
			C77.045,21.804,77.322,20.868,77.322,19.704z"/>
	</g>
	<g>
		<path fill="#008AFF" d="M119.487,26.552h-4.698v-2.31h-0.063c-1.08,1.802-2.678,2.702-4.793,2.702
			c-1.562,0-2.79-0.442-3.686-1.327c-0.896-0.886-1.344-2.067-1.344-3.544c0-3.122,1.85-4.924,5.548-5.405l4.368-0.582
			c0-1.76-0.953-2.64-2.86-2.64c-1.917,0-3.739,0.571-5.469,1.713v-3.74c0.692-0.356,1.638-0.67,2.837-0.943
			c1.199-0.272,2.292-0.408,3.276-0.408c4.589,0,6.883,2.289,6.883,6.867V26.552z M114.82,20.015v-1.084l-2.923,0.377
			c-1.613,0.209-2.42,0.938-2.42,2.184c0,0.566,0.196,1.029,0.589,1.392c0.394,0.361,0.925,0.542,1.596,0.542
			c0.932,0,1.691-0.322,2.278-0.967S114.82,20.999,114.82,20.015z"/>
		<path fill="#008AFF" d="M125.931,7.915c-0.839,0-1.524-0.249-2.059-0.747s-0.802-1.108-0.802-1.831
			c0-0.744,0.268-1.352,0.802-1.823c0.534-0.471,1.22-0.707,2.059-0.707c0.849,0,1.537,0.236,2.066,0.707
			c0.528,0.472,0.794,1.079,0.794,1.823c0,0.754-0.266,1.373-0.794,1.854C127.468,7.673,126.779,7.915,125.931,7.915z
			 M128.382,26.552h-4.966V10.46h4.966V26.552z"/>
		<path fill="#008AFF" d="M147.02,19.92h-10.498c0.168,2.337,1.64,3.505,4.416,3.505c1.771,0,3.326-0.419,4.667-1.258v3.583
			c-1.487,0.797-3.42,1.194-5.799,1.194c-2.598,0-4.614-0.72-6.05-2.16s-2.152-3.449-2.152-6.026c0-2.672,0.774-4.788,2.325-6.349
			s3.457-2.341,5.721-2.341c2.346,0,4.161,0.697,5.444,2.09c1.283,1.394,1.926,3.284,1.926,5.673V19.92z M142.415,16.871
			c0-2.304-0.933-3.457-2.798-3.457c-0.796,0-1.484,0.33-2.066,0.99c-0.581,0.66-0.935,1.483-1.061,2.467H142.415z"/>
	</g>
</g>
</svg>
